<?xml version="1.0" encoding="UTF-8" standalone="no"?><!-- Generator: Gravit.io --><svg xmlns="http://www.w3.org/2000/svg" xmlns:xlink="http://www.w3.org/1999/xlink" style="isolation:isolate" viewBox="9.25 -168.5 249.5 221" width="249.5pt" height="221pt"><defs><clipPath id="_clipPath_TyGj9vOoTmPdxyGZAwzrpxTemI8NJ9SR"><rect x="9.25" y="-168.5" width="249.5" height="221"/></clipPath></defs><g clip-path="url(#_clipPath_TyGj9vOoTmPdxyGZAwzrpxTemI8NJ9SR)"><path d="M 31.35 -168.5 L 236.65 -168.5 C 248.847 -168.5 258.75 -158.597 258.75 -146.4 L 258.75 30.4 C 258.75 42.597 248.847 52.5 236.65 52.5 L 31.35 52.5 C 19.153 52.5 9.25 42.597 9.25 30.4 L 9.25 -146.4 C 9.25 -158.597 19.153 -168.5 31.35 -168.5 Z" style="stroke:none;fill:#286464;stroke-miterlimit:10;"/><rect x="146.092" y="-49.641" width="8" height="69.737" transform="matrix(0.978,-0.208,0.208,0.978,6.351,30.883)" fill="rgb(14,15,15)"/><path d=" M 69 -58 C 69 -99.394 98.126 -133 134 -133 C 169.874 -133 199 -99.394 199 -58 L 134 -58 L 69 -58 Z " fill="rgb(0,0,0)"/><rect x="109" y="-58" width="9" height="78" transform="matrix(1,0,0,1,0,0)" fill="rgb(0,0,0)"/></g></svg>